<svg xmlns="http://www.w3.org/2000/svg" xmlns:xlink="http://www.w3.org/1999/xlink" width="500" zoomAndPan="magnify" viewBox="0 0 375 374.999991" height="500" preserveAspectRatio="xMidYMid meet" version="1.0"><defs><clipPath id="38c9cb66de"><path d="M 187 143 L 251.675781 143 L 251.675781 207.378906 L 187 207.378906 Z M 187 143 " clip-rule="nonzero"/></clipPath><clipPath id="fd23cc1e9d"><path d="M 123.425781 79.128906 L 251.675781 79.128906 L 251.675781 207.378906 L 123.425781 207.378906 Z M 123.425781 79.128906 " clip-rule="nonzero"/></clipPath></defs><g clip-path="url(#38c9cb66de)"><path fill="#379b8a" d="M 251.671875 194.300781 L 251.671875 158.554688 L 236.375 143.253906 C 236.375 153.398438 228.125 161.652344 217.980469 161.652344 L 205.945312 161.652344 L 205.945312 173.6875 C 205.945312 183.828125 197.691406 192.082031 187.550781 192.082031 L 202.847656 207.378906 L 238.59375 207.378906 C 245.816406 207.378906 251.671875 201.523438 251.671875 194.300781 " fill-opacity="1" fill-rule="nonzero"/></g><g clip-path="url(#fd23cc1e9d)"><path fill="#00c3a5" d="M 161.820312 161.652344 L 157.117188 161.652344 C 146.976562 161.652344 138.722656 153.398438 138.722656 143.253906 C 138.722656 133.113281 146.976562 124.859375 157.117188 124.859375 L 169.152344 124.859375 L 169.152344 112.824219 C 169.152344 102.683594 177.40625 94.429688 187.550781 94.429688 C 197.691406 94.429688 205.945312 102.683594 205.945312 112.824219 L 205.945312 124.859375 L 196.644531 124.859375 L 196.644531 112.824219 C 196.644531 107.8125 192.566406 103.730469 187.550781 103.730469 C 182.535156 103.730469 178.457031 107.8125 178.457031 112.824219 L 178.457031 129.511719 C 178.457031 132.078125 176.371094 134.160156 173.804688 134.160156 L 157.117188 134.160156 C 152.105469 134.160156 148.023438 138.242188 148.023438 143.253906 C 148.023438 148.269531 152.105469 152.351562 157.117188 152.351562 L 161.820312 152.351562 Z M 169.152344 173.6875 L 169.152344 161.585938 L 178.457031 161.585938 L 178.457031 173.6875 C 178.457031 178.699219 182.535156 182.78125 187.550781 182.78125 C 192.566406 182.78125 196.644531 178.699219 196.644531 173.6875 L 196.644531 157 C 196.644531 154.433594 198.726562 152.351562 201.292969 152.351562 L 217.980469 152.351562 C 222.996094 152.351562 227.074219 148.269531 227.074219 143.253906 C 227.074219 138.242188 222.996094 134.160156 217.980469 134.160156 L 213.277344 134.160156 L 213.277344 124.859375 L 217.980469 124.859375 C 228.125 124.859375 236.375 133.113281 236.375 143.253906 L 251.671875 158.554688 L 251.671875 92.210938 C 251.671875 84.988281 245.816406 79.132812 238.59375 79.132812 L 136.503906 79.132812 C 129.28125 79.132812 123.425781 84.988281 123.425781 92.210938 L 123.425781 194.300781 C 123.425781 201.523438 129.28125 207.378906 136.503906 207.378906 L 202.847656 207.378906 L 187.550781 192.082031 C 177.40625 192.082031 169.152344 183.828125 169.152344 173.6875 " fill-opacity="1" fill-rule="nonzero"/></g></svg>