<svg xmlns="http://www.w3.org/2000/svg" xmlns:xlink="http://www.w3.org/1999/xlink" width="500" zoomAndPan="magnify" viewBox="0 0 375 374.999991" height="500" preserveAspectRatio="xMidYMid meet" version="1.0"><path fill="#379b8a" d="M 374.996094 336.75 L 374.996094 232.230469 L 330.261719 187.5 C 330.261719 217.160156 306.136719 241.289062 276.480469 241.289062 L 241.289062 241.289062 L 241.289062 276.480469 C 241.289062 306.132812 217.160156 330.261719 187.5 330.261719 L 232.234375 374.996094 L 336.75 374.996094 C 357.875 374.996094 374.996094 357.875 374.996094 336.75 " fill-opacity="1" fill-rule="nonzero"/><path fill="#00c3a5" d="M 112.265625 241.289062 L 98.519531 241.289062 C 68.867188 241.289062 44.738281 217.160156 44.738281 187.5 C 44.738281 157.839844 68.867188 133.710938 98.519531 133.710938 L 133.710938 133.710938 L 133.710938 98.519531 C 133.710938 68.867188 157.839844 44.738281 187.5 44.738281 C 217.160156 44.738281 241.289062 68.867188 241.289062 98.519531 L 241.289062 133.710938 L 214.089844 133.710938 L 214.089844 98.519531 C 214.089844 83.859375 202.164062 71.929688 187.5 71.929688 C 172.835938 71.929688 160.910156 83.859375 160.910156 98.519531 L 160.910156 147.3125 C 160.910156 154.820312 154.820312 160.910156 147.3125 160.910156 L 98.519531 160.910156 C 83.859375 160.910156 71.929688 172.839844 71.929688 187.5 C 71.929688 202.164062 83.859375 214.089844 98.519531 214.089844 L 112.265625 214.089844 Z M 133.710938 276.480469 L 133.710938 241.101562 L 160.910156 241.101562 L 160.910156 276.480469 C 160.910156 291.140625 172.835938 303.070312 187.5 303.070312 C 202.164062 303.070312 214.089844 291.140625 214.089844 276.480469 L 214.089844 227.6875 C 214.089844 220.179688 220.179688 214.089844 227.6875 214.089844 L 276.480469 214.089844 C 291.140625 214.089844 303.070312 202.164062 303.070312 187.5 C 303.070312 172.839844 291.140625 160.910156 276.480469 160.910156 L 262.734375 160.910156 L 262.734375 133.710938 L 276.480469 133.710938 C 306.136719 133.710938 330.261719 157.839844 330.261719 187.5 L 374.996094 232.230469 L 374.996094 38.25 C 374.996094 17.125 357.875 0.00390625 336.75 0.00390625 L 38.25 0.00390625 C 17.125 0.00390625 0.00390625 17.125 0.00390625 38.25 L 0.00390625 336.75 C 0.00390625 357.875 17.125 374.996094 38.25 374.996094 L 232.234375 374.996094 L 187.5 330.261719 C 157.839844 330.261719 133.710938 306.132812 133.710938 276.480469 " fill-opacity="1" fill-rule="nonzero"/></svg>