<svg xmlns="http://www.w3.org/2000/svg" xmlns:xlink="http://www.w3.org/1999/xlink" width="1000" zoomAndPan="magnify" viewBox="0 0 750 749.999995" height="1000" preserveAspectRatio="xMidYMid meet" version="1.0"><defs><filter x="0%" y="0%" width="100%" height="100%" id="1ce2ccbca0"><feColorMatrix values="0 0 0 0 1 0 0 0 0 1 0 0 0 0 1 0 0 0 1 0" color-interpolation-filters="sRGB"/></filter><mask id="5736306f02"><g filter="url(#1ce2ccbca0)"><rect x="-75" width="900" fill="#000000" y="-74.999999" height="899.999994" fill-opacity="0.3373"/></g></mask><clipPath id="89590055c1"><path d="M 0.121094 1 L 20 1 L 20 19.800781 L 0.121094 19.800781 Z M 0.121094 1 " clip-rule="nonzero"/></clipPath><clipPath id="cf5fff2ad0"><path d="M 363 1 L 383 1 L 383 19.800781 L 363 19.800781 Z M 363 1 " clip-rule="nonzero"/></clipPath><clipPath id="f2645f6242"><rect x="0" width="384" y="0" height="20"/></clipPath></defs><rect x="-75" width="900" fill="#ffffff" y="-74.999999" height="899.999994" fill-opacity="1"/><path fill="#e4e8ec" d="M 595.660156 685.3125 C 595.660156 685.929688 595.574219 686.546875 595.402344 687.160156 C 595.226562 687.777344 594.96875 688.390625 594.625 689.003906 C 594.277344 689.613281 593.847656 690.226562 593.332031 690.835938 C 592.816406 691.445312 592.214844 692.050781 591.527344 692.65625 C 590.839844 693.257812 590.070312 693.859375 589.214844 694.457031 C 588.359375 695.054688 587.421875 695.648438 586.398438 696.238281 C 585.378906 696.828125 584.273438 697.410156 583.089844 697.992188 C 581.902344 698.570312 580.636719 699.144531 579.292969 699.714844 C 577.945312 700.28125 576.519531 700.84375 575.015625 701.402344 C 573.507812 701.960938 571.925781 702.507812 570.269531 703.050781 C 568.609375 703.59375 566.875 704.132812 565.066406 704.660156 C 563.257812 705.1875 561.375 705.707031 559.417969 706.21875 C 557.464844 706.730469 555.4375 707.234375 553.34375 707.730469 C 551.246094 708.222656 549.082031 708.710938 546.847656 709.1875 C 544.617188 709.660156 542.320312 710.128906 539.957031 710.585938 C 537.589844 711.039062 535.164062 711.484375 532.675781 711.921875 C 530.1875 712.355469 527.640625 712.78125 525.035156 713.195312 C 522.425781 713.609375 519.761719 714.011719 517.042969 714.402344 C 514.320312 714.792969 511.546875 715.171875 508.722656 715.539062 C 505.894531 715.90625 503.019531 716.257812 500.089844 716.601562 C 497.164062 716.945312 494.191406 717.273438 491.175781 717.589844 C 488.15625 717.90625 485.09375 718.210938 481.992188 718.5 C 478.886719 718.789062 475.746094 719.066406 472.5625 719.332031 C 469.382812 719.59375 466.167969 719.84375 462.914062 720.078125 C 459.664062 720.3125 456.382812 720.535156 453.066406 720.742188 C 449.753906 720.949219 446.414062 721.144531 443.046875 721.324219 C 439.679688 721.5 436.289062 721.664062 432.875 721.816406 C 429.460938 721.964844 426.027344 722.101562 422.574219 722.21875 C 419.125 722.339844 415.660156 722.445312 412.175781 722.535156 C 408.695312 722.625 405.203125 722.703125 401.703125 722.761719 C 398.199219 722.820312 394.691406 722.867188 391.175781 722.898438 C 387.660156 722.929688 384.144531 722.941406 380.625 722.941406 C 377.105469 722.941406 373.589844 722.929688 370.074219 722.898438 C 366.558594 722.867188 363.050781 722.820312 359.546875 722.761719 C 356.046875 722.703125 352.554688 722.625 349.074219 722.535156 C 345.589844 722.445312 342.125 722.339844 338.671875 722.21875 C 335.222656 722.101562 331.789062 721.964844 328.375 721.816406 C 324.960938 721.664062 321.570312 721.5 318.203125 721.324219 C 314.835938 721.144531 311.496094 720.949219 308.183594 720.742188 C 304.867188 720.535156 301.585938 720.3125 298.335938 720.078125 C 295.082031 719.84375 291.867188 719.59375 288.6875 719.332031 C 285.503906 719.066406 282.363281 718.789062 279.257812 718.5 C 276.15625 718.210938 273.09375 717.90625 270.074219 717.589844 C 267.054688 717.273438 264.085938 716.945312 261.15625 716.601562 C 258.230469 716.257812 255.355469 715.90625 252.527344 715.539062 C 249.703125 715.171875 246.929688 714.792969 244.207031 714.402344 C 241.488281 714.011719 238.824219 713.609375 236.214844 713.195312 C 233.609375 712.78125 231.0625 712.355469 228.574219 711.921875 C 226.082031 711.484375 223.65625 711.039062 221.292969 710.585938 C 218.929688 710.128906 216.632812 709.660156 214.402344 709.1875 C 212.167969 708.710938 210.003906 708.222656 207.90625 707.730469 C 205.8125 707.234375 203.785156 706.730469 201.832031 706.21875 C 199.875 705.707031 197.992188 705.1875 196.183594 704.660156 C 194.375 704.132812 192.640625 703.59375 190.980469 703.050781 C 189.324219 702.507812 187.742188 701.960938 186.234375 701.402344 C 184.730469 700.84375 183.304688 700.28125 181.957031 699.714844 C 180.613281 699.144531 179.347656 698.570312 178.160156 697.992188 C 176.976562 697.410156 175.871094 696.828125 174.847656 696.238281 C 173.828125 695.648438 172.890625 695.054688 172.035156 694.457031 C 171.179688 693.859375 170.410156 693.257812 169.722656 692.65625 C 169.035156 692.050781 168.433594 691.445312 167.917969 690.835938 C 167.402344 690.226562 166.96875 689.613281 166.625 689.003906 C 166.28125 688.390625 166.023438 687.773438 165.847656 687.160156 C 165.675781 686.546875 165.589844 685.929688 165.589844 685.3125 C 165.589844 684.699219 165.675781 684.082031 165.847656 683.46875 C 166.023438 682.851562 166.28125 682.238281 166.625 681.625 C 166.96875 681.011719 167.402344 680.402344 167.917969 679.792969 C 168.433594 679.183594 169.035156 678.578125 169.722656 677.972656 C 170.410156 677.367188 171.179688 676.769531 172.035156 676.171875 C 172.890625 675.574219 173.828125 674.980469 174.847656 674.390625 C 175.871094 673.800781 176.976562 673.21875 178.160156 672.636719 C 179.347656 672.058594 180.613281 671.484375 181.957031 670.914062 C 183.304688 670.34375 184.730469 669.78125 186.234375 669.226562 C 187.742188 668.667969 189.324219 668.117188 190.980469 667.574219 C 192.640625 667.03125 194.375 666.496094 196.183594 665.96875 C 197.992188 665.441406 199.875 664.921875 201.832031 664.410156 C 203.785156 663.894531 205.8125 663.394531 207.90625 662.898438 C 210.003906 662.402344 212.167969 661.917969 214.402344 661.441406 C 216.632812 660.964844 218.929688 660.5 221.292969 660.042969 C 223.65625 659.585938 226.082031 659.140625 228.574219 658.707031 C 231.0625 658.269531 233.609375 657.847656 236.214844 657.433594 C 238.824219 657.019531 241.488281 656.617188 244.207031 656.226562 C 246.929688 655.835938 249.703125 655.457031 252.527344 655.089844 C 255.355469 654.722656 258.230469 654.367188 261.15625 654.027344 C 264.085938 653.683594 267.054688 653.355469 270.074219 653.039062 C 273.09375 652.722656 276.15625 652.417969 279.257812 652.128906 C 282.363281 651.835938 285.503906 651.5625 288.6875 651.296875 C 291.867188 651.035156 295.082031 650.785156 298.335938 650.550781 C 301.585938 650.3125 304.867188 650.09375 308.183594 649.882812 C 311.496094 649.675781 314.835938 649.484375 318.203125 649.304688 C 321.570312 649.125 324.960938 648.960938 328.375 648.8125 C 331.789062 648.664062 335.222656 648.527344 338.671875 648.40625 C 342.125 648.289062 345.589844 648.183594 349.074219 648.09375 C 352.554688 648 356.046875 647.925781 359.546875 647.867188 C 363.050781 647.804688 366.558594 647.761719 370.074219 647.730469 C 373.589844 647.699219 377.105469 647.683594 380.625 647.683594 C 384.144531 647.683594 387.660156 647.699219 391.175781 647.730469 C 394.691406 647.761719 398.199219 647.804688 401.703125 647.867188 C 405.203125 647.925781 408.695312 648.003906 412.175781 648.09375 C 415.660156 648.183594 419.125 648.289062 422.574219 648.40625 C 426.027344 648.527344 429.460938 648.664062 432.875 648.8125 C 436.289062 648.960938 439.679688 649.125 443.046875 649.304688 C 446.414062 649.484375 449.753906 649.675781 453.066406 649.882812 C 456.382812 650.09375 459.664062 650.3125 462.914062 650.550781 C 466.167969 650.785156 469.382812 651.035156 472.5625 651.296875 C 475.746094 651.5625 478.886719 651.835938 481.992188 652.128906 C 485.09375 652.417969 488.15625 652.722656 491.175781 653.039062 C 494.191406 653.355469 497.164062 653.683594 500.089844 654.027344 C 503.019531 654.367188 505.894531 654.722656 508.722656 655.089844 C 511.546875 655.457031 514.320312 655.835938 517.042969 656.226562 C 519.761719 656.617188 522.425781 657.019531 525.035156 657.433594 C 527.640625 657.847656 530.1875 658.269531 532.675781 658.707031 C 535.164062 659.140625 537.589844 659.585938 539.957031 660.042969 C 542.320312 660.5 544.617188 660.964844 546.847656 661.441406 C 549.082031 661.917969 551.246094 662.402344 553.34375 662.898438 C 555.4375 663.394531 557.464844 663.894531 559.417969 664.410156 C 561.375 664.921875 563.257812 665.441406 565.066406 665.96875 C 566.875 666.496094 568.609375 667.03125 570.269531 667.574219 C 571.925781 668.117188 573.507812 668.667969 575.015625 669.226562 C 576.519531 669.78125 577.945312 670.34375 579.292969 670.914062 C 580.636719 671.484375 581.902344 672.058594 583.089844 672.636719 C 584.273438 673.21875 585.378906 673.800781 586.398438 674.390625 C 587.421875 674.980469 588.359375 675.574219 589.214844 676.171875 C 590.070312 676.769531 590.839844 677.367188 591.527344 677.972656 C 592.214844 678.578125 592.816406 679.183594 593.332031 679.792969 C 593.847656 680.402344 594.28125 681.011719 594.625 681.625 C 594.96875 682.238281 595.226562 682.851562 595.402344 683.46875 C 595.574219 684.082031 595.660156 684.699219 595.660156 685.3125 Z M 595.660156 685.3125 " fill-opacity="1" fill-rule="nonzero"/><path fill="#fff1e5" d="M 380.457031 630.703125 C 285.554688 630.703125 208.464844 553.863281 208.464844 458.707031 L 208.464844 259.074219 L 552.453125 259.074219 L 552.453125 458.625 C 552.535156 553.527344 475.613281 630.703125 380.457031 630.703125 Z M 380.457031 630.703125 " fill-opacity="1" fill-rule="nonzero"/><path fill="#ffd7cf" d="M 380.457031 606.976562 C 285.554688 606.976562 208.464844 530.136719 208.464844 434.980469 L 208.464844 458.707031 C 208.464844 553.613281 285.304688 630.703125 380.457031 630.703125 C 475.363281 630.703125 552.453125 553.863281 552.453125 458.707031 L 552.453125 434.980469 C 552.535156 529.804688 475.613281 606.976562 380.457031 606.976562 Z M 380.457031 606.976562 " fill-opacity="1" fill-rule="nonzero"/><path stroke-linecap="round" transform="matrix(0.8325, 0, 0, 0.8325, -35.624999, 0.00002)" fill="none" stroke-linejoin="round" d="M 499.798259 757.601364 C 385.801444 757.601364 293.201027 665.301247 293.201027 550.99944 L 293.201027 311.200254 L 706.400184 311.200254 L 706.400184 550.900904 C 706.49872 664.897719 614.100067 757.601364 499.798259 757.601364 Z M 499.798259 757.601364 " stroke="#441a36" stroke-width="6" stroke-opacity="1" stroke-miterlimit="10"/><path fill="#ffd7cf" d="M 553.867188 278.972656 C 553.285156 269.730469 552.785156 260.15625 552.535156 250.914062 C 438.066406 256.328125 323.015625 255.578125 208.796875 245.503906 C 207.964844 256.160156 207.464844 266.734375 206.632812 277.390625 C 211.792969 282.050781 217.289062 286.960938 222.449219 291.542969 C 226.777344 293.707031 232.523438 296.703125 237.683594 299.449219 C 260.578125 311.4375 292.464844 326.671875 323.015625 332.667969 C 334.171875 334.832031 345.910156 335.914062 357.898438 335.664062 C 409.429688 335.082031 452.800781 314.683594 471.035156 306.195312 C 473.78125 304.863281 475.945312 303.777344 477.277344 303.445312 C 478.359375 302.863281 479.441406 302.613281 481.109375 302.613281 C 484.355469 302.613281 488.183594 303.445312 492.847656 304.277344 C 498.839844 305.609375 505.917969 307.027344 513.824219 306.441406 C 522.816406 305.859375 530.972656 303.195312 538.882812 297.953125 C 543.546875 291.542969 548.707031 285.296875 553.867188 278.972656 Z M 553.867188 278.972656 " fill-opacity="1" fill-rule="nonzero"/><g mask="url(#5736306f02)"><g transform="matrix(1, 0, 0, 1, 189, 369)"><g clip-path="url(#f2645f6242)"><g clip-path="url(#89590055c1)"><path fill="#231a17" d="M 0.398438 1.046875 L 19.464844 1.046875 L 19.464844 19.027344 L 0.398438 19.027344 Z M 0.398438 1.046875 " fill-opacity="1" fill-rule="nonzero"/></g><g clip-path="url(#cf5fff2ad0)"><path fill="#231a17" d="M 363.535156 1.046875 L 382.601562 1.046875 L 382.601562 19.027344 L 363.535156 19.027344 Z M 363.535156 1.046875 " fill-opacity="1" fill-rule="nonzero"/></g></g></g></g><path stroke-linecap="round" transform="matrix(0.8325, 0, 0, 0.8325, -35.624999, 0.00002)" fill-opacity="1" fill="#d37157" fill-rule="nonzero" stroke-linejoin="round" d="M 608.600817 190.70006 C 608.600817 190.70006 443.201034 81.70043 306.400164 203.500361 C 280.898098 226.09796 270.701964 258.502241 270.701964 288.297663 L 270.701964 466.09891 L 293.599863 466.09891 L 293.599863 351.501495 C 293.599863 342.999242 299.497949 336.402019 306.700464 336.402019 C 318.501328 336.402019 382.301069 370.500182 436.402047 380.001871 C 517.900738 394.10191 592.300141 356.400143 608.300517 350.900894 C 635.801456 341.098904 658.098755 375.09853 692.80221 336.800856 L 694.101947 336.800856 C 701.29977 336.800856 707.197856 343.698379 707.197856 351.900331 L 707.197856 466.497746 L 730.001912 466.497746 L 730.001912 289.301792 C 729.401311 250.600589 684.802022 153.702123 608.600817 190.70006 Z M 608.600817 190.70006 " stroke="#441a36" stroke-width="6" stroke-opacity="1" stroke-miterlimit="10"/><path stroke-linecap="round" transform="matrix(0.8325, 0, 0, 0.8325, -35.624999, 0.00002)" fill="none" stroke-linejoin="round" d="M 468.698408 297.100216 C 468.698408 297.100216 291.202153 308.600779 253.598923 214.301788 " stroke="#441a36" stroke-width="6" stroke-opacity="1" stroke-miterlimit="10"/><path stroke-linecap="round" transform="matrix(0.8325, 0, 0, 0.8325, -35.624999, 0.00002)" fill="none" stroke-linejoin="round" d="M 493.900173 274.497925 C 493.900173 274.497925 323.001141 263.70119 278.401852 169.402199 " stroke="#441a36" stroke-width="6" stroke-opacity="1" stroke-miterlimit="10"/><path fill="#fff1e5" d="M 552.535156 366.800781 L 552.535156 456.210938 C 571.601562 456.210938 586.917969 436.3125 586.917969 411.503906 C 586.835938 386.695312 571.601562 366.800781 552.535156 366.800781 Z M 552.535156 366.800781 " fill-opacity="1" fill-rule="nonzero"/><path fill="#ffd7cf" d="M 552.535156 371.710938 L 552.535156 451.046875 C 563.691406 443.722656 571.351562 428.652344 571.351562 411.253906 C 571.351562 394.023438 563.691406 379.039062 552.535156 371.710938 Z M 552.535156 371.710938 " fill-opacity="1" fill-rule="nonzero"/><path stroke-linecap="round" transform="matrix(0.8325, 0, 0, 0.8325, -35.624999, 0.00002)" fill="none" stroke-linejoin="round" d="M 706.49872 440.601536 L 706.49872 548.001129 C 729.401311 548.001129 747.799397 524.099101 747.799397 494.298987 C 747.700861 464.498872 729.401311 440.601536 706.49872 440.601536 Z M 706.49872 440.601536 " stroke="#441a36" stroke-width="6" stroke-opacity="1" stroke-miterlimit="10"/><path fill="#fff1e5" d="M 208.714844 366.800781 L 208.714844 456.210938 C 189.648438 456.210938 174.332031 436.3125 174.332031 411.503906 C 174.164062 386.695312 189.648438 366.800781 208.714844 366.800781 Z M 208.714844 366.800781 " fill-opacity="1" fill-rule="nonzero"/><path fill="#ffd7cf" d="M 208.714844 373.292969 C 198.890625 381.203125 192.0625 395.355469 192.0625 411.421875 C 192.0625 427.488281 198.640625 441.640625 208.714844 449.550781 Z M 208.714844 373.292969 " fill-opacity="1" fill-rule="nonzero"/><path stroke-linecap="round" transform="matrix(0.8325, 0, 0, 0.8325, -35.624999, 0.00002)" fill="none" stroke-linejoin="round" d="M 293.501327 440.601536 L 293.501327 548.001129 C 270.598736 548.001129 252.200649 524.099101 252.200649 494.298987 C 251.998885 464.498872 270.598736 440.601536 293.501327 440.601536 Z M 293.501327 440.601536 " stroke="#441a36" stroke-width="6" stroke-opacity="1" stroke-miterlimit="10"/><path stroke-linecap="round" transform="matrix(0.8325, 0, 0, 0.8325, -35.624999, 0.00002)" fill="none" stroke-linejoin="round" d="M 491.300699 527.998313 L 477.500961 572.897902 C 477.500961 577.801243 493.501337 573.902031 509.900549 577.801243 " stroke="#441a36" stroke-width="6" stroke-opacity="1" stroke-miterlimit="10"/><path stroke-linecap="round" transform="matrix(0.8325, 0, 0, 0.8325, -35.624999, 0.00002)" fill="none" stroke-linejoin="round" d="M 568.599877 611.800869 C 573.498526 645.899031 529.598373 675.999446 495.298447 669.80106 " stroke="#441a36" stroke-width="6" stroke-opacity="1" stroke-miterlimit="10"/><path stroke-linecap="round" transform="matrix(0.8325, 0, 0, 0.8325, -35.624999, 0.00002)" fill="none" stroke-linejoin="round" d="M 439.301822 475.300299 C 439.301822 476.266891 439.212671 477.219406 439.034367 478.167229 C 438.856064 479.115052 438.597993 480.034722 438.250771 480.926238 C 437.903549 481.817755 437.476559 482.662349 436.974495 483.464714 C 436.47243 484.267079 435.899983 485.013138 435.257152 485.693506 C 434.619014 486.378566 433.919878 486.988551 433.169127 487.523461 C 432.413684 488.058371 431.616011 488.513513 430.780801 488.879504 C 429.945591 489.250188 429.082227 489.527027 428.190711 489.719407 C 427.303886 489.907094 426.407677 490.000938 425.502084 490.000938 C 424.591799 490.000938 423.69559 489.907094 422.808766 489.719407 C 421.917249 489.527027 421.053886 489.250188 420.218676 488.879504 C 419.383465 488.513513 418.585793 488.058371 417.835042 487.523461 C 417.079599 486.988551 416.380462 486.378566 415.742324 485.693506 C 415.099494 485.013138 414.527046 484.267079 414.024982 483.464714 C 413.522917 482.662349 413.095928 481.817755 412.748705 480.926238 C 412.401483 480.034722 412.143413 479.115052 411.965109 478.167229 C 411.786806 477.219406 411.702346 476.266891 411.702346 475.300299 C 411.702346 474.333708 411.786806 473.376501 411.965109 472.43337 C 412.143413 471.485547 412.401483 470.565877 412.748705 469.674361 C 413.095928 468.782844 413.522917 467.933557 414.024982 467.131192 C 414.527046 466.328828 415.099494 465.587461 415.742324 464.907093 C 416.380462 464.222033 417.079599 463.612048 417.835042 463.077138 C 418.585793 462.542228 419.383465 462.087086 420.218676 461.721095 C 421.053886 461.350411 421.917249 461.06888 422.808766 460.881192 C 423.69559 460.693504 424.591799 460.599661 425.502084 460.599661 C 426.407677 460.599661 427.303886 460.693504 428.190711 460.881192 C 429.082227 461.06888 429.945591 461.350411 430.780801 461.721095 C 431.616011 462.087086 432.413684 462.542228 433.169127 463.077138 C 433.919878 463.612048 434.619014 464.222033 435.257152 464.907093 C 435.899983 465.587461 436.47243 466.328828 436.974495 467.131192 C 437.476559 467.933557 437.903549 468.782844 438.250771 469.674361 C 438.597993 470.565877 438.856064 471.485547 439.034367 472.43337 C 439.212671 473.376501 439.301822 474.333708 439.301822 475.300299 Z M 439.301822 475.300299 " stroke="#000000" stroke-width="2" stroke-opacity="1" stroke-miterlimit="10"/><path fill="#441a36" d="M 330.09375 395.6875 C 330.09375 396.492188 330.019531 397.285156 329.871094 398.074219 C 329.722656 398.863281 329.507812 399.628906 329.21875 400.371094 C 328.929688 401.113281 328.574219 401.816406 328.15625 402.484375 C 327.738281 403.152344 327.261719 403.773438 326.726562 404.339844 C 326.195312 404.910156 325.613281 405.417969 324.988281 405.863281 C 324.359375 406.308594 323.695312 406.6875 323 406.992188 C 322.304688 407.300781 321.585938 407.53125 320.84375 407.691406 C 320.105469 407.847656 319.359375 407.925781 318.605469 407.925781 C 317.847656 407.925781 317.101562 407.847656 316.363281 407.691406 C 315.621094 407.53125 314.902344 407.300781 314.207031 406.992188 C 313.511719 406.6875 312.847656 406.308594 312.222656 405.863281 C 311.59375 405.417969 311.011719 404.910156 310.480469 404.339844 C 309.945312 403.773438 309.46875 403.152344 309.050781 402.484375 C 308.632812 401.816406 308.277344 401.113281 307.988281 400.371094 C 307.699219 399.628906 307.484375 398.863281 307.335938 398.074219 C 307.1875 397.285156 307.117188 396.492188 307.117188 395.6875 C 307.117188 394.882812 307.1875 394.085938 307.335938 393.300781 C 307.484375 392.511719 307.699219 391.746094 307.988281 391.003906 C 308.277344 390.261719 308.632812 389.554688 309.050781 388.886719 C 309.46875 388.21875 309.945312 387.601562 310.480469 387.035156 C 311.011719 386.464844 311.59375 385.957031 312.222656 385.511719 C 312.847656 385.066406 313.511719 384.6875 314.207031 384.382812 C 314.902344 384.074219 315.621094 383.839844 316.363281 383.683594 C 317.101562 383.527344 317.847656 383.449219 318.605469 383.449219 C 319.359375 383.449219 320.105469 383.527344 320.84375 383.683594 C 321.585938 383.839844 322.304688 384.074219 323 384.382812 C 323.695312 384.6875 324.359375 385.066406 324.988281 385.511719 C 325.613281 385.957031 326.195312 386.464844 326.726562 387.035156 C 327.261719 387.601562 327.738281 388.21875 328.15625 388.886719 C 328.574219 389.554688 328.929688 390.261719 329.21875 391.003906 C 329.507812 391.746094 329.722656 392.511719 329.871094 393.300781 C 330.019531 394.085938 330.09375 394.882812 330.09375 395.6875 Z M 330.09375 395.6875 " fill-opacity="1" fill-rule="nonzero"/><path stroke-linecap="round" transform="matrix(0.8325, 0, 0, 0.8325, -35.624999, 0.00002)" fill="none" stroke-linejoin="round" d="M 377.998328 444.200448 C 384.900543 435.998496 400.900919 430.40071 419.899607 430.40071 C 434.999082 430.40071 448.099683 433.999622 456.198407 439.6021 " stroke="#441a36" stroke-width="6" stroke-opacity="1" stroke-miterlimit="10"/><path stroke-linecap="round" transform="matrix(0.8325, 0, 0, 0.8325, -35.624999, 0.00002)" fill="none" stroke-linejoin="round" d="M 589.897738 475.300299 C 589.897738 476.266891 589.813279 477.219406 589.634975 478.167229 C 589.456672 479.115052 589.193909 480.034722 588.851379 480.926238 C 588.504157 481.817755 588.077167 482.662349 587.575103 483.464714 C 587.073038 484.267079 586.500591 485.013138 585.85776 485.693506 C 585.219622 486.378566 584.520485 486.988551 583.765043 487.523461 C 583.014292 488.058371 582.216619 488.513513 581.381409 488.879504 C 580.541506 489.250188 579.682835 489.527027 578.791319 489.719407 C 577.904494 489.907094 577.008285 490.000938 576.098 490.000938 C 575.192407 490.000938 574.296198 489.907094 573.409374 489.719407 C 572.517857 489.527027 571.654494 489.250188 570.819284 488.879504 C 569.984073 488.513513 569.186401 488.058371 568.430958 487.523461 C 567.680207 486.988551 566.98107 486.378566 566.342932 485.693506 C 565.700102 485.013138 565.127654 484.267079 564.62559 483.464714 C 564.123525 482.662349 563.696536 481.817755 563.349313 480.926238 C 563.002091 480.034722 562.74402 479.115052 562.565717 478.167229 C 562.387414 477.219406 562.298262 476.266891 562.298262 475.300299 C 562.298262 474.333708 562.387414 473.376501 562.565717 472.43337 C 562.74402 471.485547 563.002091 470.565877 563.349313 469.674361 C 563.696536 468.782844 564.123525 467.933557 564.62559 467.131192 C 565.127654 466.328828 565.700102 465.587461 566.342932 464.907093 C 566.98107 464.222033 567.680207 463.612048 568.430958 463.077138 C 569.186401 462.542228 569.984073 462.087086 570.819284 461.721095 C 571.654494 461.350411 572.517857 461.06888 573.409374 460.881192 C 574.296198 460.693504 575.192407 460.599661 576.098 460.599661 C 577.008285 460.599661 577.904494 460.693504 578.791319 460.881192 C 579.682835 461.06888 580.541506 461.350411 581.381409 461.721095 C 582.216619 462.087086 583.014292 462.542228 583.765043 463.077138 C 584.520485 463.612048 585.219622 464.222033 585.85776 464.907093 C 586.500591 465.587461 587.073038 466.328828 587.575103 467.131192 C 588.077167 467.933557 588.504157 468.782844 588.851379 469.674361 C 589.193909 470.565877 589.456672 471.485547 589.634975 472.43337 C 589.813279 473.376501 589.897738 474.333708 589.897738 475.300299 Z M 589.897738 475.300299 " stroke="#000000" stroke-width="2" stroke-opacity="1" stroke-miterlimit="10"/><path fill="#441a36" d="M 455.464844 395.6875 C 455.464844 396.492188 455.394531 397.285156 455.246094 398.074219 C 455.097656 398.863281 454.878906 399.628906 454.59375 400.371094 C 454.304688 401.113281 453.949219 401.816406 453.53125 402.484375 C 453.113281 403.152344 452.636719 403.773438 452.101562 404.339844 C 451.570312 404.910156 450.988281 405.417969 450.359375 405.863281 C 449.734375 406.308594 449.070312 406.6875 448.375 406.992188 C 447.675781 407.300781 446.960938 407.53125 446.21875 407.691406 C 445.480469 407.847656 444.734375 407.925781 443.976562 407.925781 C 443.222656 407.925781 442.476562 407.847656 441.738281 407.691406 C 440.996094 407.53125 440.277344 407.300781 439.582031 406.992188 C 438.886719 406.6875 438.222656 406.308594 437.59375 405.863281 C 436.96875 405.417969 436.386719 404.910156 435.855469 404.339844 C 435.320312 403.773438 434.84375 403.152344 434.425781 402.484375 C 434.007812 401.816406 433.652344 401.113281 433.363281 400.371094 C 433.074219 399.628906 432.859375 398.863281 432.710938 398.074219 C 432.5625 397.285156 432.488281 396.492188 432.488281 395.6875 C 432.488281 394.882812 432.5625 394.085938 432.710938 393.300781 C 432.859375 392.511719 433.074219 391.746094 433.363281 391.003906 C 433.652344 390.261719 434.007812 389.554688 434.425781 388.886719 C 434.84375 388.21875 435.320312 387.601562 435.855469 387.035156 C 436.386719 386.464844 436.96875 385.957031 437.59375 385.511719 C 438.222656 385.066406 438.886719 384.6875 439.582031 384.382812 C 440.277344 384.074219 440.996094 383.839844 441.738281 383.683594 C 442.476562 383.527344 443.222656 383.449219 443.976562 383.449219 C 444.734375 383.449219 445.480469 383.527344 446.21875 383.683594 C 446.960938 383.839844 447.675781 384.074219 448.375 384.382812 C 449.070312 384.6875 449.734375 385.066406 450.359375 385.511719 C 450.988281 385.957031 451.570312 386.464844 452.101562 387.035156 C 452.636719 387.601562 453.113281 388.21875 453.53125 388.886719 C 453.949219 389.554688 454.304688 390.261719 454.59375 391.003906 C 454.878906 391.746094 455.097656 392.511719 455.246094 393.300781 C 455.394531 394.085938 455.464844 394.882812 455.464844 395.6875 Z M 455.464844 395.6875 " fill-opacity="1" fill-rule="nonzero"/><path stroke-linecap="round" transform="matrix(0.8325, 0, 0, 0.8325, -35.624999, 0.00002)" fill="none" stroke-linejoin="round" d="M 623.601756 444.200448 C 616.699541 435.998496 600.699165 430.40071 581.700478 430.40071 C 566.601003 430.40071 553.500401 433.999622 545.401677 439.6021 " stroke="#441a36" stroke-width="6" stroke-opacity="1" stroke-miterlimit="10"/><path fill="#a4fcef" d="M 511.328125 494.253906 C 511.328125 479.1875 511.328125 464.203125 511.328125 449.132812 C 424.246094 441.640625 336.503906 441.640625 249.421875 449.132812 C 249.421875 464.203125 249.421875 479.1875 249.421875 494.253906 C 249.421875 556.777344 308.03125 607.476562 380.375 607.476562 C 452.71875 607.476562 511.328125 556.859375 511.328125 494.253906 Z M 511.328125 494.253906 " fill-opacity="1" fill-rule="nonzero"/><path fill="#a4fcef" d="M 511.328125 494.253906 C 511.328125 479.1875 511.328125 464.203125 511.328125 449.132812 C 424.246094 441.640625 336.503906 441.640625 249.421875 449.132812 C 249.421875 464.203125 249.421875 479.1875 249.421875 494.253906 C 249.421875 556.777344 308.03125 607.476562 380.375 607.476562 C 452.71875 607.476562 511.328125 556.859375 511.328125 494.253906 Z M 511.328125 494.253906 " fill-opacity="1" fill-rule="nonzero"/><path fill="#8fefdf" d="M 380.375 568.597656 C 308.03125 568.597656 249.421875 527.722656 249.421875 477.273438 C 249.421875 482.933594 249.421875 488.675781 249.421875 494.339844 C 249.421875 556.859375 308.03125 607.558594 380.375 607.558594 C 452.71875 607.558594 511.328125 556.859375 511.328125 494.253906 C 511.328125 488.59375 511.328125 482.851562 511.328125 477.1875 C 511.328125 527.636719 452.71875 568.597656 380.375 568.597656 Z M 380.375 568.597656 " fill-opacity="1" fill-rule="nonzero"/><path stroke-linecap="round" transform="matrix(0.8325, 0, 0, 0.8325, -35.624999, 0.00002)" fill="none" stroke-linejoin="round" d="M 657.000782 561.800867 C 552.2992 552.801242 447.00171 552.801242 342.398664 561.800867 " stroke="#ffffff" stroke-width="6" stroke-opacity="0.4275" stroke-miterlimit="10"/><path stroke-linecap="round" transform="matrix(0.8325, 0, 0, 0.8325, -35.624999, 0.00002)" fill="none" stroke-linejoin="round" d="M 657.000782 593.698391 C 657.000782 575.600605 657.000782 557.601355 657.000782 539.498876 C 552.397736 530.499251 447.00171 530.499251 342.398664 539.498876 C 342.398664 557.601355 342.398664 575.600605 342.398664 593.698391 C 342.398664 668.801623 412.800319 729.701588 499.699723 729.701588 C 586.599127 729.701588 657.000782 668.900159 657.000782 593.698391 Z M 657.000782 593.698391 " stroke="#441a36" stroke-width="6" stroke-opacity="1" stroke-miterlimit="10"/><path stroke-linecap="round" transform="matrix(0.8325, 0, 0, 0.8325, -35.624999, 0.00002)" fill="none" stroke-linejoin="round" d="M 380.400731 591.098916 C 404.199531 602.89978 448.700284 610.801432 499.699723 610.801432 C 550.699163 610.801432 595.199915 602.89978 618.998715 591.098916 " stroke="#441a36" stroke-width="6" stroke-opacity="1" stroke-miterlimit="10"/><path stroke-linecap="round" transform="matrix(0.8325, 0, 0, 0.8325, -35.624999, 0.00002)" fill="none" stroke-linejoin="round" d="M 393.599868 646.598168 C 414.799193 658.399032 454.401297 666.300684 499.699723 666.300684 C 544.998149 666.300684 584.698789 658.399032 605.799578 646.598168 " stroke="#441a36" stroke-width="6" stroke-opacity="1" stroke-miterlimit="10"/><path stroke-linecap="round" transform="matrix(0.8325, 0, 0, 0.8325, -35.624999, 0.00002)" fill="none" stroke-linejoin="round" d="M 657.000782 539.602104 L 706.400184 444.500748 L 706.400184 548.001129 C 706.400184 548.001129 686.997968 607.901657 644.599317 646.598168 " stroke="#441a36" stroke-width="6" stroke-opacity="1" stroke-miterlimit="10"/><path stroke-linecap="round" transform="matrix(0.8325, 0, 0, 0.8325, -35.624999, 0.00002)" fill="none" stroke-linejoin="round" d="M 342.999265 539.602104 L 293.599863 444.500748 L 293.599863 548.001129 C 293.599863 548.001129 313.002079 607.901657 355.40073 646.598168 " stroke="#441a36" stroke-width="6" stroke-opacity="1" stroke-miterlimit="10"/></svg>