<svg xmlns="http://www.w3.org/2000/svg" width="1000" viewBox="0 0 750 750" height="1000" version="1.0"><defs><clipPath id="d"><path d="M.121 1H20v18.8H.121Zm0 0"/></clipPath><clipPath id="e"><path d="M363 1h20v18.8h-20Zm0 0"/></clipPath><clipPath id="c"><path d="M0 0h384v20H0z"/></clipPath><filter x="0%" y="0%" width="100%" height="100%" id="a"><feColorMatrix values="0 0 0 0 1 0 0 0 0 1 0 0 0 0 1 0 0 0 1 0" color-interpolation-filters="sRGB"/></filter><mask id="b"><g filter="url(#a)"><path fill-opacity=".337" d="M-75-75h900v900H-75z"/></g></mask></defs><path fill="#fff" d="M-75-75h900v900H-75z"/><path fill="#e4e8ec" d="M595.66 685.313c0 .617-.086 1.234-.258 1.847a8.564 8.564 0 0 1-.777 1.844c-.348.61-.777 1.223-1.293 1.832a17.55 17.55 0 0 1-1.805 1.82 26.933 26.933 0 0 1-2.312 1.801 38.386 38.386 0 0 1-2.817 1.781 55.788 55.788 0 0 1-3.308 1.754 80.813 80.813 0 0 1-3.797 1.723 109.037 109.037 0 0 1-4.277 1.687c-1.508.559-3.09 1.106-4.746 1.649-1.66.543-3.395 1.082-5.204 1.61a209.764 209.764 0 0 1-5.648 1.558c-1.953.511-3.98 1.015-6.074 1.511-2.098.493-4.262.98-6.496 1.457-2.23.473-4.528.942-6.891 1.399-2.367.453-4.793.898-7.281 1.336a519.004 519.004 0 0 1-15.633 2.48 635.788 635.788 0 0 1-16.953 2.2c-2.926.343-5.899.671-8.914.988-3.02.316-6.082.62-9.184.91-3.105.29-6.246.566-9.43.832-3.18.262-6.394.512-9.648.746-3.25.235-6.531.457-9.848.664-3.312.207-6.652.403-10.02.582a1081.579 1081.579 0 0 1-20.473.895c-3.448.12-6.913.226-10.397.316-3.48.09-6.973.168-10.473.227a1186.834 1186.834 0 0 1-21.078.18 1186.834 1186.834 0 0 1-31.55-.407c-3.485-.09-6.95-.195-10.403-.316a1085.8 1085.8 0 0 1-30.488-1.477c-3.317-.207-6.598-.43-9.848-.664a946.364 946.364 0 0 1-9.649-.746 988.632 988.632 0 0 1-9.43-.832 804.172 804.172 0 0 1-18.1-1.898 635.788 635.788 0 0 1-16.95-2.2 519.004 519.004 0 0 1-15.633-2.48 472.8 472.8 0 0 1-7.281-1.336 394.85 394.85 0 0 1-6.89-1.399 327.03 327.03 0 0 1-6.497-1.457c-2.094-.496-4.12-1-6.074-1.511a209.764 209.764 0 0 1-5.648-1.559 168.134 168.134 0 0 1-5.204-1.61 132.545 132.545 0 0 1-4.746-1.648 109.037 109.037 0 0 1-4.277-1.687 80.813 80.813 0 0 1-3.797-1.723 57.188 57.188 0 0 1-3.312-1.754 39.124 39.124 0 0 1-2.813-1.781 26.933 26.933 0 0 1-2.312-1.8 17.55 17.55 0 0 1-1.805-1.821c-.516-.61-.95-1.223-1.293-1.832a8.646 8.646 0 0 1-.777-1.844 6.825 6.825 0 0 1-.258-1.847c0-.614.086-1.231.258-1.844.175-.617.433-1.23.777-1.844.344-.613.777-1.223 1.293-1.832a17.55 17.55 0 0 1 1.805-1.82 26.176 26.176 0 0 1 2.312-1.801 39.124 39.124 0 0 1 2.813-1.781 57.187 57.187 0 0 1 3.312-1.754 80.812 80.812 0 0 1 3.797-1.723 98.017 98.017 0 0 1 4.277-1.687c1.508-.559 3.09-1.11 4.746-1.653 1.66-.543 3.395-1.078 5.204-1.605a209.764 209.764 0 0 1 5.648-1.559c1.953-.515 3.98-1.015 6.074-1.512 2.098-.496 4.262-.98 6.496-1.457 2.23-.476 4.528-.941 6.891-1.398a471.828 471.828 0 0 1 14.922-2.61c2.61-.413 5.273-.816 7.992-1.206a635.805 635.805 0 0 1 16.95-2.2 804.195 804.195 0 0 1 18.102-1.898 875.841 875.841 0 0 1 19.077-1.578c3.25-.239 6.531-.457 9.848-.668a1102.662 1102.662 0 0 1 30.488-1.477 1277.045 1277.045 0 0 1 20.875-.539c3.504-.062 7.012-.105 10.527-.137a1186.784 1186.784 0 0 1 21.102 0c3.515.032 7.023.075 10.527.137a1270.796 1270.796 0 0 1 20.871.54c3.453.12 6.887.257 10.301.405a1102.662 1102.662 0 0 1 20.191 1.07 1022.007 1022.007 0 0 1 19.496 1.415 875.841 875.841 0 0 1 18.614 1.742c3.015.316 5.988.645 8.914.988a637.66 637.66 0 0 1 16.953 2.2c2.719.39 5.383.793 7.992 1.207a471.828 471.828 0 0 1 14.922 2.609c2.363.457 4.66.922 6.89 1.398 2.235.477 4.4.961 6.497 1.457 2.093.497 4.12.997 6.074 1.512 1.957.512 3.84 1.031 5.648 1.559 1.809.527 3.543 1.062 5.204 1.605 1.656.543 3.238 1.094 4.746 1.653a98.017 98.017 0 0 1 4.277 1.687c1.344.57 2.61 1.145 3.797 1.723a55.788 55.788 0 0 1 3.308 1.754c1.024.59 1.961 1.183 2.817 1.78a26.176 26.176 0 0 1 2.312 1.802 17.55 17.55 0 0 1 1.805 1.82c.516.61.95 1.219 1.293 1.832.344.613.602 1.227.777 1.844.172.613.258 1.23.258 1.843Zm0 0"/><path fill="#fff1e5" d="M380.457 630.703c-94.902 0-171.992-76.84-171.992-171.996V259.074h343.988v199.551c.082 94.902-76.84 172.078-171.996 172.078Zm0 0"/><path fill="#ffd7cf" d="M380.457 606.977c-94.902 0-171.992-76.84-171.992-171.997v23.727c0 94.906 76.84 171.996 171.992 171.996 94.906 0 171.996-76.84 171.996-171.996V434.98c.082 94.825-76.84 171.997-171.996 171.997Zm0 0"/><path stroke-linecap="round" fill="none" stroke-linejoin="round" d="M380.457 630.703c-94.902 0-171.992-76.84-171.992-171.996V259.074h343.988v199.551c.082 94.902-76.84 172.078-171.996 172.078Zm0 0" stroke="#441a36" stroke-width="4.995" stroke-miterlimit="10"/><path fill="#ffd7cf" d="M553.867 278.973c-.582-9.243-1.082-18.817-1.332-28.059-114.469 5.414-229.52 4.664-343.738-5.41-.832 10.656-1.332 21.23-2.164 31.887 5.16 4.66 10.656 9.57 15.816 14.152 4.328 2.164 10.074 5.16 15.235 7.906 22.894 11.988 54.78 27.223 85.332 33.219a165.43 165.43 0 0 0 34.882 2.996c51.532-.582 94.903-20.98 113.137-29.469 2.746-1.332 4.91-2.418 6.242-2.75 1.082-.582 2.164-.832 3.832-.832 3.246 0 7.075.832 11.739 1.664 5.992 1.332 13.07 2.75 20.976 2.164 8.992-.582 17.149-3.246 25.059-8.488 4.664-6.41 9.824-12.656 14.984-18.98Zm0 0"/><g mask="url(#b)"><g clip-path="url(#c)" transform="translate(189 369)"><g clip-path="url(#d)"><path fill="#231a17" d="M.398 1.047h19.067v17.98H.398Zm0 0"/></g><g clip-path="url(#e)"><path fill="#231a17" d="M363.535 1.047h19.067v17.98h-19.067Zm0 0"/></g></g></g><path stroke-linecap="round" fill="#d37157" stroke-linejoin="round" d="M471.035 158.758S333.34 68.016 219.453 169.414c-21.23 18.813-29.719 45.79-29.719 70.594v148.02h19.063v-95.403c0-7.078 4.91-12.57 10.906-12.57 9.824 0 62.938 28.386 107.977 36.297 67.847 11.738 129.785-19.649 143.105-24.227 22.895-8.16 41.457 20.145 70.348-11.738h1.082c5.992 0 10.902 5.742 10.902 12.57v95.402h18.985V240.844c-.5-32.219-37.63-112.887-101.067-82.086Zm0 0" stroke="#441a36" stroke-width="4.995" stroke-miterlimit="10"/><path stroke-linecap="round" fill="none" stroke-linejoin="round" d="M354.566 247.336s-147.765 9.574-179.07-68.93M375.547 228.52s-142.274-8.989-179.402-87.493" stroke="#441a36" stroke-width="4.995" stroke-miterlimit="10"/><path fill="#fff1e5" d="M552.535 366.8v89.41c19.067 0 34.383-19.897 34.383-44.706-.082-24.809-15.316-44.703-34.383-44.703Zm0 0"/><path fill="#ffd7cf" d="M552.535 371.71v79.337c11.156-7.324 18.817-22.395 18.817-39.793 0-17.23-7.66-32.215-18.817-39.543Zm0 0"/><path stroke-linecap="round" fill="none" stroke-linejoin="round" d="M552.535 366.8v89.411c19.067 0 34.383-19.898 34.383-44.707-.082-24.809-15.316-44.703-34.383-44.703Zm0 0" stroke="#441a36" stroke-width="4.995" stroke-miterlimit="10"/><path fill="#fff1e5" d="M208.715 366.8v89.41c-19.067 0-34.383-19.897-34.383-44.706-.168-24.809 15.316-44.703 34.383-44.703Zm0 0"/><path fill="#ffd7cf" d="M208.715 373.293c-9.824 7.91-16.653 22.062-16.653 38.129 0 16.066 6.579 30.219 16.653 38.129Zm0 0"/><path stroke-linecap="round" fill="none" stroke-linejoin="round" d="M208.715 366.8v89.411c-19.067 0-34.383-19.898-34.383-44.707-.168-24.809 15.316-44.703 34.383-44.703ZM373.383 439.559l-11.488 37.379c0 4.082 13.32.835 26.972 4.082M437.734 509.324c4.079 28.387-32.468 53.446-61.023 48.285" stroke="#441a36" stroke-width="4.995" stroke-miterlimit="10"/><path stroke-linecap="round" fill="none" stroke-linejoin="round" d="M330.094 395.688c0 .804-.074 1.597-.223 2.386a12.586 12.586 0 0 1-1.715 4.41c-.418.668-.894 1.29-1.43 1.856a11.46 11.46 0 0 1-1.738 1.523 11.266 11.266 0 0 1-4.144 1.828 10.781 10.781 0 0 1-4.48 0c-.743-.16-1.462-.39-2.157-.699a11.096 11.096 0 0 1-1.984-1.129 11.302 11.302 0 0 1-1.743-1.523 11.842 11.842 0 0 1-1.43-1.856 12.586 12.586 0 0 1-1.714-4.41 12.858 12.858 0 0 1-.219-2.386c0-.805.07-1.602.219-2.387a12.623 12.623 0 0 1 1.715-4.414 11.81 11.81 0 0 1 1.43-1.852 11.302 11.302 0 0 1 1.742-1.523c.625-.446 1.289-.824 1.984-1.13a10.777 10.777 0 0 1 4.398-.933 10.78 10.78 0 0 1 4.395.934c.695.305 1.36.683 1.988 1.129a11.46 11.46 0 0 1 1.739 1.523 11.81 11.81 0 0 1 1.43 1.852 12.623 12.623 0 0 1 1.714 4.414c.149.785.223 1.582.223 2.387Zm0 0" stroke="#000" stroke-width="1.665" stroke-miterlimit="10"/><path fill="#441a36" d="M330.094 395.688c0 .804-.074 1.597-.223 2.386a12.586 12.586 0 0 1-1.715 4.41c-.418.668-.894 1.29-1.43 1.856a11.46 11.46 0 0 1-1.738 1.523 11.266 11.266 0 0 1-4.144 1.828 10.78 10.78 0 0 1-4.48 0c-.743-.16-1.462-.39-2.157-.699a11.096 11.096 0 0 1-1.984-1.129 11.302 11.302 0 0 1-1.743-1.523 11.842 11.842 0 0 1-1.43-1.856 12.586 12.586 0 0 1-1.714-4.41 12.858 12.858 0 0 1-.219-2.387 12.861 12.861 0 0 1 .871-4.684c.29-.741.645-1.448 1.063-2.116a11.81 11.81 0 0 1 1.43-1.852 11.302 11.302 0 0 1 1.742-1.523c.625-.446 1.289-.825 1.984-1.13a10.777 10.777 0 0 1 4.398-.933 10.78 10.78 0 0 1 4.395.934c.695.305 1.36.683 1.988 1.129a11.46 11.46 0 0 1 1.739 1.523 11.81 11.81 0 0 1 1.43 1.852 12.623 12.623 0 0 1 1.714 4.414c.149.785.223 1.582.223 2.387Zm0 0"/><path stroke-linecap="round" fill="none" stroke-linejoin="round" d="M279.059 369.797c5.746-6.828 19.066-11.488 34.882-11.488 12.57 0 23.477 2.996 30.22 7.66" stroke="#441a36" stroke-width="4.995" stroke-miterlimit="10"/><path stroke-linecap="round" fill="none" stroke-linejoin="round" d="M455.465 395.688a12.858 12.858 0 0 1-.871 4.683c-.29.742-.645 1.445-1.063 2.113-.418.668-.894 1.29-1.43 1.856a11.302 11.302 0 0 1-1.742 1.523 11.118 11.118 0 0 1-4.14 1.828 10.79 10.79 0 0 1-4.48 0 11.266 11.266 0 0 1-4.145-1.828 11.46 11.46 0 0 1-1.739-1.523 11.842 11.842 0 0 1-1.43-1.856 12.586 12.586 0 0 1-1.714-4.41 12.861 12.861 0 0 1 0-4.773 12.623 12.623 0 0 1 1.715-4.414 11.81 11.81 0 0 1 1.43-1.852 11.46 11.46 0 0 1 1.738-1.523 11.266 11.266 0 0 1 4.144-1.828 10.78 10.78 0 0 1 4.48 0c.743.156 1.458.39 2.157.699.695.305 1.36.683 1.984 1.129.63.445 1.211.953 1.743 1.523a11.81 11.81 0 0 1 1.43 1.852 12.623 12.623 0 0 1 1.714 4.414c.149.785.219 1.582.219 2.387Zm0 0" stroke="#000" stroke-width="1.665" stroke-miterlimit="10"/><path fill="#441a36" d="M455.465 395.688a12.858 12.858 0 0 1-.871 4.683c-.29.742-.645 1.445-1.063 2.113-.418.668-.894 1.29-1.43 1.856a11.302 11.302 0 0 1-1.742 1.523 11.118 11.118 0 0 1-4.14 1.828 10.79 10.79 0 0 1-4.48 0 11.266 11.266 0 0 1-4.145-1.828 11.46 11.46 0 0 1-1.739-1.523 11.842 11.842 0 0 1-1.43-1.856 12.586 12.586 0 0 1-1.714-4.41 12.861 12.861 0 0 1 0-4.773 12.623 12.623 0 0 1 1.715-4.414 11.81 11.81 0 0 1 1.43-1.852 11.46 11.46 0 0 1 1.738-1.523 11.266 11.266 0 0 1 4.144-1.828 10.78 10.78 0 0 1 4.48 0c.743.156 1.458.39 2.157.699.695.305 1.36.683 1.984 1.129.63.445 1.211.953 1.743 1.523a11.81 11.81 0 0 1 1.43 1.852 12.623 12.623 0 0 1 1.714 4.414c.149.785.219 1.582.219 2.387Zm0 0"/><path stroke-linecap="round" fill="none" stroke-linejoin="round" d="M483.523 369.797c-5.746-6.828-19.066-11.488-34.882-11.488-12.57 0-23.477 2.996-30.22 7.66" stroke="#441a36" stroke-width="4.995" stroke-miterlimit="10"/><path fill="#a4fcef" d="M511.328 494.254v-45.121a1528.73 1528.73 0 0 0-261.906 0v45.12c0 62.524 58.61 113.224 130.953 113.224 72.344 0 130.953-50.618 130.953-113.223Zm0 0"/><path fill="#a4fcef" d="M511.328 494.254v-45.121a1528.73 1528.73 0 0 0-261.906 0v45.12c0 62.524 58.61 113.224 130.953 113.224 72.344 0 130.953-50.618 130.953-113.223Zm0 0"/><path fill="#8fefdf" d="M380.375 568.598c-72.344 0-130.953-40.875-130.953-91.325v17.067c0 62.52 58.61 113.219 130.953 113.219 72.344 0 130.953-50.7 130.953-113.305v-17.067c0 50.45-58.61 91.41-130.953 91.41Zm0 0"/><path stroke-linecap="round" fill="none" stroke-linejoin="round" d="M511.328 467.7a1528.73 1528.73 0 0 0-261.906 0" stroke="#fff" stroke-width="4.995" stroke-opacity=".427" stroke-miterlimit="10"/><path stroke-linecap="round" fill="none" stroke-linejoin="round" d="M511.328 494.254v-45.121a1528.73 1528.73 0 0 0-261.906 0v45.12c0 62.524 58.61 113.224 130.953 113.224 72.344 0 130.953-50.618 130.953-113.223Zm0 0" stroke="#441a36" stroke-width="4.995" stroke-miterlimit="10"/><path stroke-linecap="round" fill="none" stroke-linejoin="round" d="M281.059 492.09c19.812 9.824 56.859 16.402 99.316 16.402s79.504-6.578 99.316-16.402M292.047 538.293c17.648 9.824 50.617 16.402 88.328 16.402 37.711 0 70.762-6.578 88.328-16.402M511.328 449.219l41.125-79.172v86.164s-16.152 49.867-51.45 82.082M249.922 449.219l-41.125-79.172v86.164s16.152 49.867 51.45 82.082" stroke="#441a36" stroke-width="4.995" stroke-miterlimit="10"/></svg>