<svg version="1.1" id="Layer_1" xmlns="http://www.w3.org/2000/svg" x="0" y="0" viewBox="0 0 108.3 108.3" style="enable-background:new 0 0 108.3 108.3" xml:space="preserve"><style>.st1{fill:#ffb8b8}.st2{fill:#575a89}</style><g id="Group_45" transform="translate(-191 -152.079)"><g id="Group_30" transform="translate(282.246 224.353)"><path id="Path_944" d="M17.1-18.1c0 10.5-3 20.8-8.8 29.6-1.2 1.9-2.5 3.6-4 5.3-3.4 4-7.3 7.4-11.6 10.3-1.2.8-2.4 1.5-3.6 2.2-6.5 3.6-13.7 5.8-21 6.5-1.7.2-3.4.2-5.1.2-4.7 0-9.4-.6-14-1.8-2.6-.7-5.1-1.6-7.6-2.6-1.3-.5-2.5-1.1-3.7-1.8-2.9-1.5-5.6-3.3-8.2-5.3-1.2-.9-2.3-1.9-3.4-2.9C-95.8 1.3-97.1-33-76.8-54.9s54.6-23.3 76.5-2.9c11.1 10.2 17.4 24.6 17.4 39.7z" style="fill:#e6e6e6"/><path id="Path_945" class="st1" d="M-50.2-13.2S-45.3.5-49.1 8.2s6 16.4 6 16.4 25.8-13.1 22.5-19.7-8.8-15.3-7.7-20.8l-21.9 2.7z"/><circle id="Ellipse_185" class="st1" cx="-40.6" cy="-25.5" r="17.5"/><path id="Path_946" class="st2" d="M-51.1 34.2c-2.6-.7-5.1-1.6-7.6-2.6l.5-13.3 4.9-11c1.1.9 2.3 1.6 3.5 2.3.3.2.6.3.9.5 4.6 2.2 12.2 4.2 19.5-1.3 2.7-2.1 5-4.7 6.7-7.6L-8.8 9l.7 8.4.8 9.8c-1.2.8-2.4 1.5-3.6 2.2-6.5 3.6-13.7 5.8-21 6.5-1.7.2-3.4.2-5.1.2-4.8 0-9.5-.7-14.1-1.9z"/><path id="Path_947" class="st2" d="m-47.7-.9-.7 7.2-.4 3.8-.5 5.6-1.8 18.5c-2.6-.7-5.1-1.6-7.6-2.6-1.3-.5-2.5-1.1-3.7-1.8-2.9-1.5-5.6-3.3-8.2-5.3l-1.9-9 .1-.1L-47.7-.9z"/><path id="Path_948" class="st2" d="M-10.9 29.3c-6.5 3.6-13.7 5.8-21 6.5.4-6.7 1-13.1 1.6-18.8.3-2.9.7-5.7 1.1-8.2 1.2-8 2.5-13.5 3.4-14.2l6.1 4L4.9 7.3l-.5 9.5c-3.4 4-7.3 7.4-11.6 10.3-1.3.8-2.5 1.6-3.7 2.2z"/><path id="Path_949" class="st2" d="M-70.5 24.6c-1.2-.9-2.3-1.9-3.4-2.9l.9-6.1.7-.1 3.1-.4 6.8 14.8c-2.8-1.6-5.5-3.3-8.1-5.3z"/><path id="Path_950" class="st2" d="M8.3 11.5c-1.2 1.9-2.5 3.6-4 5.3-3.4 4-7.3 7.4-11.6 10.3-1.2.8-2.4 1.5-3.6 2.2l-.6-2.8 3.5-9.1 4.2-11.1L5 7.4c1.1 1.3 2.2 2.7 3.3 4.1z"/><path id="Path_951" d="M-23.9-41.4c-2.7-4.3-6.8-7.5-11.6-8.9l-3.6 2.9 1.4-3.3c-1.2-.2-2.3-.2-3.5-.2l-3.2 4.1 1.3-4c-5.6.7-10.7 3.7-14 8.3-4.1 5.9-4.8 14.1-.8 20 1.1-3.4 2.4-6.6 3.5-9.9.9.1 1.7.1 2.6 0l1.3-3.1.4 3c4.2-.4 10.3-1.2 14.3-1.9l-.4-2.3 2.3 1.9c1.2-.3 1.9-.5 1.9-.7 2.9 4.7 5.8 7.7 8.8 12.5 1.1-6.8 3-12.3-.7-18.4z" style="fill:#2f2e41"/><ellipse id="Ellipse_186" class="st1" cx="-24.9" cy="-26.1" rx="1.2" ry="2.4"/></g></g></svg>