<svg version="1.1" id="_x38_8ce59e9-c4b8-4d1d-9d7a-ce0190159aa8" xmlns="http://www.w3.org/2000/svg" x="0" y="0" viewBox="0 0 231.8 231.8" style="enable-background:new 0 0 231.8 231.8" xml:space="preserve"><style>.st4{fill:#f55f44}.st5{opacity:.1;enable-background:new}.st6{fill:#fda57d}</style><g style="opacity:.5"><linearGradient id="SVGID_1_" gradientUnits="userSpaceOnUse" x1="115.89" y1="9.36" x2="115.89" y2="241.14" gradientTransform="matrix(1 0 0 -1 0 241.14)"><stop offset="0" style="stop-color:gray;stop-opacity:.25"/><stop offset=".54" style="stop-color:gray;stop-opacity:.12"/><stop offset="1" style="stop-color:gray;stop-opacity:.1"/></linearGradient><circle cx="115.9" cy="115.9" r="115.9" style="fill:url(#SVGID_1_)"/></g><circle cx="116.1" cy="115.1" r="113.4" style="fill:#f5f5f5"/><path d="M116.2 229c22.2 0 43.8-6.5 62.3-18.7-4.2-22.8-20.1-24.2-20.1-24.2H70.8s-15 1.2-19.7 22.2c19 13.6 41.8 20.8 65.1 20.7z" style="fill:#4e73df"/><circle class="st4" cx="115" cy="112.8" r="54.8"/><path class="st5" d="M97.3 158.4h35.1v28.1c0 9.7-7.9 17.5-17.5 17.5-9.7 0-17.5-7.9-17.5-17.5l-.1-28.1z"/><path class="st6" d="M100.7 157.1h28.4c1.9 0 3.4 1.5 3.4 3.4v24.7c0 9.7-7.9 17.5-17.5 17.5-9.7 0-17.5-7.9-17.5-17.5v-24.7c-.1-1.9 1.3-3.4 3.2-3.4z"/><path class="st5" d="M97.4 171.6c11.3 4.2 23.8 4.3 35.1.1v-4.3H97.4v4.2z"/><circle class="st6" cx="115" cy="123.7" r="50.3"/><circle class="st4" cx="114.9" cy="57.1" r="20.2"/><circle class="st4" cx="114.9" cy="37.1" r="13.3"/><path class="st4" d="M106.2 68.2c-9.9-4.4-14.5-15.8-10.5-25.9-.1.3-.3.6-.4.9-4.6 10.2 0 22.2 10.2 26.8s22.2 0 26.8-10.2c.1-.3.2-.6.4-.9-5.1 9.6-16.7 13.7-26.5 9.3z"/><path class="st5" d="M79.2 77.9s21.2 43 81 18l-13.9-21.8-24.7-8.9-42.4 12.7z"/><path class="st4" d="M79.2 77.3s21.2 43 81 18l-13.9-21.8-24.7-8.9-42.4 12.7z"/><path d="M95.5 61.6c13-1 26.1-1 39.2 0 0 0-28.9 2.7-39.2 0z" style="fill:#333"/><path class="st4" d="M118 23c-1 0-2 0-3 .2h.8c7.3.2 13.1 6.4 12.8 13.7-.2 6.2-4.7 11.5-10.8 12.6 7.3.1 13.3-5.8 13.4-13.2 0-7.2-5.9-13.2-13.2-13.3z"/><ellipse class="st6" cx="64.7" cy="123.6" rx="4.7" ry="8.8"/><ellipse class="st6" cx="165.3" cy="123.6" rx="4.7" ry="8.8"/><path class="st4" d="m76 78.6 9.8-5.1 2.2 8.1-6 4.1z"/></svg>